#!OML:ASF E:/inclinewalkrobotboard/Project1/Captureday1/Session1/subject1.ASF
:FULLY-SPECIFIED
:DEGREES
226
root 0 0 0 0.3333612414364051 -29.948917566730003 -0.18839019752397496
lowerback 17.294554084482552 0.8326462832736814 -0.7946646951974669
upperback 4.895630811638133 0.7232435169856564 0.05166166857098542
thorax -4.392983426369746 0.3235249048674408 0.3108254761762708
lowerneck -4.729677477395191 -6.090426303988513 -8.039416385396779
upperneck -3.853205341463271 -7.98844375587049 11.560680436464892
head 0.23579955742265746 -3.927096887384913 4.591990683971157
rclavicle -3.3688680554995448E-15 1.144501253285924E-16
rhumerus -8.878799899321859 -2.000109336873715 -70.02580278792736
rradius 11.365302170338303
rwrist 41.79818718099517
rhand -6.459656976959007 19.61747637272868
rfingers 7.125020000000034
rthumb 19.350083079246346 -10.052493038030661
lclavicle 3.6891844119492545E-17 -1.6395103852849835E-17
lhumerus 18.749237255949836 -32.54077996566411 69.45507099102207
lradius 125.33275131441023
lwrist 54.31346119821787
lhand -27.179371843571605 42.90799827363168
lfingers 7.143031329747184
lthumb -0.447518136244895 52.94540870156614
rfemur -34.42300184423197 3.9422287985766804 7.931627173273552
rtibia 58.73364017291516
rfoot -2.9903377261393107 -8.850913546141413
rtoes -3.2742910911486742
lfemur -4.718755234175131 -4.6158477490347245 -15.181835546314108
ltibia 25.7762957418325
lfoot -17.821958110985236 14.896570727455163
ltoes -1.1867191058454916
227
root 0 0 0 0.2999726757512149 -30.169051210143508 -0.12769954523546984
lowerback 17.31630341838133 0.8193483504950078 -0.792507005953489
upperback 4.9035631128582295 0.7052401528114147 0.06054632957521022
thorax -4.395606894572044 0.3144562981858675 0.32065184284099474
lowerneck -4.7284539213856505 -6.056082411755105 -8.023811549880346
upperneck -3.8990404665672553 -7.938286513249338 11.525835982243478
head 0.2157694855072938 -3.904721722856294 4.582183186512709
rclavicle -3.3705171423540547E-15 1.1490678009000303E-16
rhumerus -8.881118161404896 -1.9914993224204505 -70.02856113545207
rradius 11.369939452488111
rwrist 41.793293562066225
rhand -6.45960408954935 19.61393106762097
rfingers 7.125020000000034
rthumb 19.350230623610685 -10.05592590920801
lclavicle 3.4580534431111937E-17 -1.5239610893421064E-17
lhumerus 18.71047400991898 -32.557711655715906 69.48198836566453
lradius 125.31312663151176
lwrist 54.28432505476191
lhand -27.162420728679635 42.90167455602206
lfingers 7.142989521871406
lthumb -0.43128032015871476 52.949653566060086
rfemur -34.46442807040701 3.9551021343536004 7.900649657668652
rtibia 58.75094979710234
rfoot -2.983531279728579 -8.82790623857555
rtoes -3.301486806879846
lfemur -4.726188577922844 -4.601985723141388 -15.18584042671594
ltibia 25.816806340234805
lfoot -17.8316109729709 14.877443913833066
ltoes -1.2094885500926118
228
root 0 0 0 0.2644603566645869 -30.386491556665494 -0.06849103025097597
lowerback 17.334298464144588 0.8059232403524654 -0.7891054748590559
upperback 4.909298913993495 0.687362336474697 0.06978432327020423
thorax -4.398472686414671 0.3054458856838919 0.33020627759939086
lowerneck -4.732013138781779 -6.020686920765308 -8.006788532131182
upperneck -3.9422388606564827 -7.886570177482245 11.487949348880772
head 0.19721276828224443 -3.88151385477312 4.571134179645928
rclavicle -3.372317033979836E-15 1.1557277755112234E-16
rhumerus -8.884745800244707 -1.9801079496896286 -70.03273954355119
rradius 11.37717826058249
rwrist 41.78630528150477
rhand -6.459957727904765 19.609073194996288
rfingers 7.125020000000034
rthumb 19.349983923763485 -10.060631832921974
lclavicle 3.118702533777344E-17 -1.3834765788943933E-17
lhumerus 18.665127613296757 -32.57567340162547 69.51275035368477
lradius 125.2874703497933
lwrist 54.24819561639805
lhand -27.14236743727762 42.89372009883953
lfingers 7.142942842156123
lthumb -0.4120635127821224 52.954930952406144
rfemur -34.50199560132083 3.9700068758056277 7.871082177615565
rtibia 58.763848919151926
rfoot -2.9772996930429336 -8.803995450250513
rtoes -3.328292536367512
lfemur -4.734576648186181 -4.590030787803078 -15.188989520375799
ltibia 25.855668835012267
lfoot -17.837722770086586 14.856561477214745
ltoes -1.2319846929048373
229
root 0 0 0 0.2267570462657016 -30.602899313270747 -0.010325190426008324
lowerback 17.348806383162152 0.7923216683434101 -0.784324418826564
upperback 4.9129119499979215 0.6695468762713072 0.07944184902921692
thorax -4.401644463014604 0.2964605732582966 0.3394846402600031
lowerneck -4.740431008264653 -5.9839136886456155 -7.9881221039381405
upperneck -3.9833510730433357 -7.832801287196951 11.446600228828736
head 0.17992628282679046 -3.8572487080692484 4.558706808877467
rclavicle -3.3742522526759853E-15 1.1640032230428146E-16
rhumerus -8.889353487065945 -1.9667649301058692 -70.03793636052752
rradius 11.386222076740282
rwrist 41.777870781404786
rhand -6.460582098127228 19.603317437958285
rfingers 7.125020000000034
rthumb 19.349472996187536 -10.06620730665503
lclavicle 2.6733696139877648E-17 -1.2192978618119183E-17
lhumerus 18.61295596946549 -32.595108305020865 69.54767106212118
lradius 125.2562281280521
lwrist 54.20522243250564
lhand -27.11910148449442 42.88421478894815
lfingers 7.142891550135355
lthumb -0.389758159005531 52.96125019348682
rfemur -34.534921352887274 3.987092629882161 7.843280286752844
rtibia 58.7716369510852
rfoot -2.9724444680582778 -8.779534651034748
rtoes -3.3549178781392066
lfemur -4.74324410727225 -4.580197421824786 -15.19139387256688
ltibia 25.891810127868723
lfoot -17.84063531233247 14.834554377686972
ltoes -1.253840642448897
230
root 0 0 0 0.18657880105484725 -30.820268736579074 0.04738811633900103
lowerback 17.36006203653084 0.7784231482525213 -0.7781716314981808
upperback 4.914510750946949 0.6516254692913632 0.08959007646217343
thorax -4.405130402188866 0.287415406249976 0.34858070173843014
lowerneck -4.753598198572819 -5.945444450892918 -7.967686020772875
upperneck -4.022770099407891 -7.776521177854358 11.401497874482368
head 0.16372252483018368 -3.831723360272864 4.544825133911104
rclavicle -3.376353929366685E-15 1.17368367527823E-16
rhumerus -8.89461131749248 -1.9522224348312331 -70.0437772082596
rradius 11.396397626779219
rwrist 41.76854136812256
rhand -6.4613748796759705 19.597014683072846
rfingers 7.125020000000034
rthumb 19.348796496957064 -10.072309561353869
lclavicle 2.1198375546352368E-17 -1.0314881965022364E-17
lhumerus 18.553997986903894 -32.61610500721632 69.5867706903027
lradius 125.21958773476331
lwrist 54.15552807196638
lhand -27.09263441401839 42.873199047780176
lfingers 7.142835880525599
lthumb -0.36437399526642267 52.968615935044845
rfemur -34.56422277469622 4.005880741716267 7.8168548979444115
rtibia 58.775451505128814
rfoot -2.9686513452603123 -8.75462761031774
rtoes -3.3814102389415712
lfemur -4.752206775365451 -4.572209079229296 -15.193144973851847
ltibia 25.925669096459156
lfoot -17.84068604368386 14.811467397316584
ltoes -1.2751759758078371
231
root 0 0 0 0.14353368753340057 -31.04069355416118 0.10521219992145753
lowerback 17.36821624297902 0.7640982154826492 -0.7706543512412075
upperback 4.914165108475368 0.6334218447222211 0.10030335566818649
thorax -4.408933551385234 0.2782214953787515 0.3575941526605387
lowerneck -4.771463871687532 -5.904959026465381 -7.945359213239919
upperneck -4.060864387845365 -7.71727346278271 11.352349756636967
head 0.14843136268769275 -3.8047345734802307 4.529412613355395
rclavicle -3.378663985420965E-15 1.1847342517131989E-16
rhumerus -8.900110560105336 -1.9371351151809222 -70.04989877069988
rradius 11.407319666759292
rwrist 41.758661236278
rhand -6.462336829163359 19.59037789846945
rfingers 7.125020000000034
rthumb 19.347954093187525 -10.078731597261605
lclavicle 1.456774874099039E-17 -8.198830627368337E-18
lhumerus 18.48832633367655 -32.638665898148844 69.6300135841428
lradius 125.17762455561325
lwrist 54.09919656173399
lhand -27.062999447701692 42.860691905562135
lfingers 7.1427758733208755
lthumb -0.335943006505925 52.97702534139061
rfemur -34.59084387961486 4.025982035520467 7.791424927369848
rtibia 58.77628629715285
rfoot -2.965673362054968 -8.729342507994767
rtoes -3.407859992146855
lfemur -4.761806549718008 -4.565633411658949 -15.19429505598546
ltibia 25.958278217224425
lfoot -17.838129133246888 14.787062702409733
ltoes -1.2963210234789262
232
root 0 0 0 0.09716566895350764 -31.266203324651812 0.16362555513767085
lowerback 17.37329467560525 0.7492295003939925 -0.7617260987754401
upperback 4.911871579568515 0.6147859226340683 0.1116587405935906
thorax -4.413065834625719 0.26880282929711724 0.3665969005463945
lowerneck -4.79413360726287 -5.862119956122891 -7.920980020793441
upperneck -4.097969609008999 -7.654575703039405 11.29879003050415
head 0.1339183084864617 -3.776062440265224 4.512360209560647
rclavicle -3.381217901044618E-15 1.1971948243283002E-16
rhumerus -8.905402657611832 -1.9220581299890878 -70.05596072029424
rradius 11.41881739921726
rwrist 41.74841826102788
rhand -6.463539878001841 19.583513866171973
rfingers 7.125020000000034
rthumb 19.346876984391756 -10.085371561761978
lclavicle 6.8302793452151795E-18 -5.838583952911365E-18
lhumerus 18.415890657296192 -32.66284278753629 69.67744672577685
lradius 125.1303410230665
lwrist 54.03621719390996
lhand -27.03017650202502 42.8466917525173
lfingers 7.142711427388261
lthumb -0.3044462973868214 52.98648083462315
rfemur -34.6152000281056 4.047272894440725 7.766795515408823
rtibia 58.77450993983194
rfoot -2.9635894643555183 -8.703756927789367
rtoes -3.434443766579733
lfemur -4.77240763162901 -4.560074169557253 -15.194877494403752
ltibia 25.990664524361137
lfoot -17.83315744395304 14.761042490754882
ltoes -1.3176395905833376
233
root 0 0 0 0.04694165779639814 -31.498756520229094 0.22304363284753523
lowerback 17.375183683992162 0.7337033804063712 -0.7512891016722746
upperback 4.907548235552904 0.595583275926151 0.12374070841303098
thorax -4.417545521635354 0.2590910119850398 0.37564040152539546
lowerneck -4.821878675463701 -5.816555612950568 -7.89433544015468
upperneck -4.134345489778548 -7.587896045359248 11.240353228972436
head 0.12009695482673255 -3.7454594346406593 4.493517146724413
rclavicle -3.384044693332116E-15 1.211136575726463E-16
rhumerus -8.910065683499685 -1.9074479094047359 -70.0616660469567
rradius 11.430825232250974
rwrist 41.73791752524993
rhand -6.465078210621115 19.576473365887992
rfingers 7.125020000000034
rthumb 19.34547495724759 -10.092182855638043
lclavicle -2.0454658701922E-18 -3.2195350080188854E-18
lhumerus 18.336435715621146 -32.6887803630072 69.7292613366058
lradius 125.07764491665563
lwrist 53.96642386835754
lhand -26.994049824580145 42.83116752232433
lfingers 7.142642347145839
lthumb -0.2697727746230729 52.99700415875716
rfemur -34.63741645318913 4.06979050188885 7.742866310770995
rtibia 58.77013544312007
rfoot -2.9626344336386516 -8.677933666198035
rtoes -3.461384825069393
lfemur -4.784307762463097 -4.555210006663368 -15.194921347240903
ltibia 26.02370856085811
lfoot -17.82592227376934 14.733104756523598
ltoes -1.3394849282894539
